<?xml version="1.0" encoding="utf-8" ?>
<svg xmlns="http://www.w3.org/2000/svg" xmlns:xlink="http://www.w3.org/1999/xlink" width="1024" height="1024">
	<defs>
		<linearGradient id="gradient_0" gradientUnits="userSpaceOnUse" x1="237.85995" y1="330.86691" x2="224.85143" y2="360.80414">
			<stop offset="0" stop-color="#BA6B11"/>
			<stop offset="1" stop-color="#D77F11"/>
		</linearGradient>
	</defs>
	<path fill="url(#gradient_0)" transform="scale(1.6 1.6)" d="M209.53 336.624C218.94 339.256 222.444 347.94 230.791 349.031C240.79 350.338 246.988 341.643 253.923 336.201L253.924 336.614C253.906 340.848 250.739 348.745 254.335 351.915C248.99 365.754 220.186 365.936 210.82 351.794C211.167 349.706 209.932 339.205 209.53 336.624Z"/>
	<path fill="#D77C16" transform="scale(1.6 1.6)" d="M228.048 258.864C275.964 254.006 275.603 324.281 238.757 336.22C199.913 344.878 181.39 264.411 228.048 258.864ZM229.707 272.569C203.118 277.828 215.648 326.122 235.875 322.778C255.262 316.622 258.258 269.953 229.707 272.569Z"/>
	<path fill="#06895B" transform="scale(1.6 1.6)" d="M406.475 258.572C455.198 259.101 446.821 335.547 408.85 336.709C368.41 335.308 360.107 261.21 406.475 258.572ZM406.15 272.606C375.279 276.658 392.885 326.805 409.737 324.183C429.403 318.501 434.51 271.212 406.15 272.606Z"/>
	<path fill="#0189D1" transform="scale(1.6 1.6)" d="M316.935 76.0856C367.052 72.121 363.409 150.024 323.519 157.449C284.181 160.862 268.405 81.0664 316.935 76.0856ZM317.48 90.3478C287.301 98.6461 303.516 146.111 323.482 143.467C344.643 134.016 347.432 88.5271 317.48 90.3478Z"/>
	<path fill="#0189D1" transform="scale(1.6 1.6)" d="M300.394 157.891C304.601 158.817 316.682 183.699 335.661 164.184C337.721 162.066 339.482 159.587 341.972 157.933C363.979 162.273 394.536 179.252 399.201 203.605C400.67 211.274 401.044 239.254 399.534 246.851C394.703 252.333 386.088 250.355 379.57 250.346L353.594 250.305L263.251 250.327C242.561 250.329 240.369 252.854 240.386 230.706C240.401 209.62 240.055 191.07 258.234 177.414C267.205 170.675 289.591 160.147 300.394 157.891ZM296.887 174.195C255.61 192.08 254.002 193.396 255.225 236.078C288.101 236.503 321.023 235.991 353.906 236.108C364.363 236.095 374.869 235.875 385.318 236.253L385.337 220.002C385.338 189.312 371.651 185.434 344.366 174.358C326.623 187.283 314.216 188.587 296.887 174.195Z"/>
	<defs>
		<linearGradient id="gradient_1" gradientUnits="userSpaceOnUse" x1="413.14926" y1="335.1644" x2="403.897" y2="434.75778">
			<stop offset="0" stop-color="#04916F"/>
			<stop offset="1" stop-color="#0485BB"/>
		</linearGradient>
	</defs>
	<path fill="url(#gradient_1)" transform="scale(1.6 1.6)" d="M327.242 414.671C324.86 372.487 326.079 364.141 367.231 343.679C370.796 341.906 382.457 334.66 386.48 336.322C391.303 338.314 394.034 347.688 405.03 349.549C417.296 351.624 421.445 342.252 429.87 336.213C439.232 337.254 463.424 350.536 470.83 356.434C487.591 369.784 491.779 393.967 487.71 414.024C485.364 418.373 485.451 423.939 484.098 428.677C452.375 429.107 420.601 428.741 388.873 428.741L344.759 428.681C341.367 428.668 329.619 430.766 328.432 426.603C328.766 422.916 327.777 418.351 327.242 414.671ZM384.157 352.077C374.592 356.761 356.806 364.23 349.435 371.354C338.233 382.181 341.665 400.123 341.498 414.143C374.994 413.741 408.585 414.876 442.06 413.935C452.493 414.107 462.913 414.632 473.341 414.77L473.435 399.515C473.37 368.186 457.594 363.959 430.895 352.316C425.383 358.325 419.809 362.36 411.401 362.722C391.405 363.581 386.963 352.493 384.157 352.077Z"/>
	<path fill="#525252" transform="scale(1.6 1.6)" d="M539.549 414.769C540.049 397.816 539.656 380.741 539.657 363.773L539.659 208.502C539.682 178.263 543.197 140.087 502.597 133.26C496.963 132.313 491.107 132.754 485.414 132.766L395.735 132.798C389.507 132.815 373.616 135.863 373.292 125.91C372.995 116.759 385.315 118.408 391.04 118.409L494.356 118.391C510.804 118.423 524.864 123.05 536.612 134.95C556.562 155.156 553.928 177.023 553.906 203.081L553.909 465.348C553.572 507.884 530.115 529.069 488.319 529.088L227.324 529.079C199.977 529.08 172.578 529.442 145.237 529.076C116.031 528.686 92.1277 510.431 87.3305 480.686C85.7161 470.677 86.5471 455.77 86.5456 445.274L86.551 245.43C86.5521 222.848 86.1393 200.181 86.5606 177.608C87.1047 148.459 105.142 124.791 134.075 119.097C139.714 117.988 146.329 118.416 152.07 118.413L230.573 118.406C240.847 118.399 251.153 118.212 261.423 118.476C264.297 120.171 266.53 122.402 266.564 125.981C266.643 134.118 254.653 132.854 249.361 132.827L172.337 132.774C161.293 132.772 145.174 131.791 134.714 134.093C100.641 141.59 101.222 170.776 101.228 197.459L101.229 413.752C106.912 414.207 112.641 414.077 118.337 414.078L139.78 414.044C144.042 414.002 148.27 413.744 152.529 414.01C153.837 371.256 152.27 362.343 193.796 343.081C198.886 340.72 204.047 337.932 209.53 336.624C209.932 339.205 211.167 349.706 210.82 351.794C220.186 365.936 248.99 365.754 254.335 351.915C250.739 348.745 253.906 340.848 253.924 336.614L253.923 336.201C256.319 334.924 270.829 342.09 273.422 343.26C287.644 349.674 301.162 355.7 308.761 370.357C316.745 385.757 312.426 398.872 314.057 414.667C314.87 418.18 314.368 421.885 313.982 425.428C308.81 431.207 296.111 428.71 289.101 428.727L101.213 428.748L101.235 456.365C101.218 474.547 100.204 488.146 114.21 502.067C126.524 514.306 140.929 514.685 157.084 514.688L493.237 514.68C529.365 514.419 539.675 490.243 539.675 458.118L539.635 437.506C539.601 434.583 539.43 431.677 539.135 428.769C532.611 428.996 526.018 428.742 519.486 428.735L484.098 428.677C485.451 423.939 485.364 418.373 487.71 414.024C503.443 415.837 522.264 412.976 539.549 414.769ZM210.82 351.794C201.628 354.89 185.129 362.654 177.931 368.764C164.487 380.178 167.294 398.442 167.403 414.325C174.503 413.868 181.673 414.05 188.786 414.05L221.914 414.06C247.348 414.07 272.897 413.533 298.318 414.175C298.731 400.727 300.737 381.413 291.097 371.183C284.352 364.024 264.225 353.655 254.335 351.915C248.99 365.754 220.186 365.936 210.82 351.794Z"/>
	<path fill="#71BAA7" transform="scale(1.6 1.6)" d="M314.057 414.667C318.44 414.326 322.896 413.749 327.242 414.671C327.777 418.351 328.766 422.916 328.432 426.603C323.572 426.669 318.935 425.197 313.982 425.428C314.368 421.885 314.87 418.18 314.057 414.667Z"/>
	<path fill="#525252" transform="scale(1.6 1.6)" d="M158.896 463.617C161.835 463.371 164.853 463.545 167.803 463.554L453.023 463.573C462.809 463.574 483.817 459.883 488.61 469.424C488.693 473.919 487.206 478.124 482.223 478.634C471.21 478.045 460.025 478.428 448.988 478.427L209.465 478.434C203.295 478.433 158.123 479.056 155.759 478.08C153.272 477.054 152.32 473.78 151.469 471.478C152.714 467.391 154.511 464.841 158.896 463.617Z"/>
</svg>
