<?xml version="1.0" encoding="utf-8" ?>
<svg xmlns="http://www.w3.org/2000/svg" xmlns:xlink="http://www.w3.org/1999/xlink" width="1024" height="1024">
	<path fill="#ED6A5A" transform="scale(1.6 1.6)" d="M313.633 189.142C314.481 181.256 311.469 174.077 316.688 167.039C323.285 158.139 336.933 152.118 346.271 146.668C351.484 143.627 362.953 135.352 368.691 134.744C374.064 134.175 378.995 141.034 375.3 145.46C367.465 154.847 334.636 166.714 327.868 175.602L327.774 186.535C327.609 188.003 327.509 189.444 327.477 190.921C323.768 190.999 314.031 192.949 313.633 189.142Z"/>
	<path fill="white" transform="scale(1.6 1.6)" d="M327.774 186.535C327.845 188.025 327.904 189.465 327.759 190.954C332.784 190.831 345.783 189.4 349.231 192.501C353.531 196.369 352.378 217.48 351.806 223.835C333.052 225.109 308.536 224.014 289.546 223.738C289.58 216.451 288.377 203.407 290.152 196.906C292.937 186.707 309.087 193.327 313.254 190.915L313.633 189.142C314.031 192.949 323.768 190.999 327.477 190.921C327.509 189.444 327.609 188.003 327.774 186.535Z"/>
	<path fill="#ED6A5A" transform="scale(1.6 1.6)" d="M225.601 388.326C224.704 391 220.954 395.733 219.41 398.498C201.275 430.958 165.621 491.164 125.094 492.229C111.05 492.598 95.8694 486.831 85.741 477.061C63.451 455.56 69.0439 410.8 72.94 382.621C78.3731 343.325 87.5863 304.255 98.2577 266.078C102.716 250.126 105.358 232.824 117.399 220.55C132.301 205.36 152.597 195.374 173.429 191.494C197.373 187.034 212.195 194.293 231.379 208.943C258.04 229.303 253.437 224.176 289.546 223.738C308.536 224.014 333.052 225.109 351.806 223.835C384.568 223.847 383.777 228.782 408.393 209.288C418.968 200.913 431.317 192.889 444.794 190.628C467.662 186.792 498.932 199.579 514.558 215.316C526.33 227.17 531.888 244.735 537.396 260.119C555.096 309.551 570.759 379.442 570.309 432.196C570.019 466.153 550.246 493.118 514.374 492.617C478.917 492.121 446.105 443.878 430.062 416.465C428.011 412.96 415.625 391.889 414.678 388.988C394.521 409.712 360.736 401.204 355.223 371.295C348.035 368.182 333.521 369.686 325.61 369.688L285.689 369.698C281.321 401.405 248.242 410.623 225.601 388.326Z"/>
	<path fill="#F4F1BB" transform="scale(1.6 1.6)" d="M454.786 297.276C478.138 295.826 481.544 325.204 460.621 330.949C436.551 334.324 433.423 300.777 454.786 297.276Z"/>
	<path fill="#F4F1BB" transform="scale(1.6 1.6)" d="M456.536 229.765C476.211 227.824 484.884 259.781 459.762 263.679C435.312 264.662 434.968 233.879 456.536 229.765Z"/>
	<path fill="#F4F1BB" transform="scale(1.6 1.6)" d="M490.057 262.555C512.159 260.507 517.882 293.039 494.443 296.426C471.003 298.216 467.069 267.978 490.057 262.555Z"/>
	<path fill="#F4F1BB" transform="scale(1.6 1.6)" d="M420.703 262.319C443.06 263.386 446.724 293.242 422.783 296.593C397.764 297.601 398.166 264.181 420.703 262.319Z"/>
	<path fill="#9BC1BC" transform="scale(1.6 1.6)" d="M355.223 371.295C360.838 316.041 426.637 328.636 420.897 372.321C420.122 378.221 417.106 383.632 414.678 388.988C394.521 409.712 360.736 401.204 355.223 371.295Z"/>
	<path fill="#9BC1BC" transform="scale(1.6 1.6)" d="M225.601 388.326C221.878 378.828 218.521 373.678 219.829 362.829C222.096 344.018 239.954 332.019 258.353 334.681C273.8 336.917 287.956 353.835 285.689 369.698C281.321 401.405 248.242 410.623 225.601 388.326Z"/>
	<path fill="white" transform="scale(1.6 1.6)" d="M185.642 228.875C208.138 227.085 203.599 246.693 204.548 261.256C213.343 261.835 227.854 260.398 235.593 262.49C249.152 266.155 248.311 290.25 235.081 293.921C228.927 295.629 212.168 294.738 204.889 294.707C204.539 309.002 210.507 328.116 190.977 331.041C164.491 333.602 168.855 313.348 169.091 295.011C160.074 294.339 142.4 297.037 135.992 290.13C129.934 283.601 130.648 271.302 137.322 265.468C144.195 259.46 160.486 261.533 169.18 262.088C168.763 246.922 165.174 230.865 185.642 228.875Z"/>
</svg>
