<?xml version="1.0" encoding="utf-8" ?>
<svg xmlns="http://www.w3.org/2000/svg" xmlns:xlink="http://www.w3.org/1999/xlink" width="1024" height="1024">
	<path fill="#373B4E" transform="scale(1.6 1.6)" d="M128.641 122.682C136.25 122.064 144.212 122.507 151.848 122.507L492.131 122.499C498.743 122.497 505.691 122.066 512.257 122.728C530.521 124.571 546.747 139.61 548.585 158.156C549.262 164.991 548.922 172.138 548.914 179.005L548.92 463.793C548.92 470.965 549.212 478.301 548.461 485.441C546.43 504.754 530.016 518.63 511.016 520.168C502.747 520.708 494.263 520.308 485.964 520.307L146.571 520.319C140.155 520.326 133.475 520.693 127.095 520.062C109.11 518.282 93.4106 503.521 91.6408 485.256C90.9875 478.514 91.3831 471.488 91.3921 464.704L91.3942 177.581C91.3933 171.431 91.0327 165.064 91.7141 158.953C93.8607 139.704 109.207 124.416 128.641 122.682Z"/>
	<path fill="white" transform="scale(1.6 1.6)" d="M130.699 133.878C138.159 133.071 145.966 133.831 153.468 133.838L490.631 133.844C509.377 133.843 531.168 131.994 536.985 156.021C540.403 170.14 537.349 219.085 537.949 236.482L510.078 236.528L102.492 236.506L102.475 183.564C102.466 176.439 101.658 163.746 102.934 157.17C105.485 144.025 117.745 134.927 130.699 133.878Z"/>
	<path fill="#FA0010" transform="scale(1.6 1.6)" d="M145.965 163.242C173.185 158.941 180.915 200.681 150.626 206.06C120.959 208.494 117.163 166.918 145.965 163.242Z"/>
	<path fill="#FEA400" transform="scale(1.6 1.6)" d="M202.14 162.618C229.493 160.147 238.367 199.988 206.225 206.15C176.083 207.82 172.231 166.443 202.14 162.618Z"/>
	<path fill="#00ACFE" transform="scale(1.6 1.6)" d="M260.515 161.679C288.063 158.884 294.588 204.167 262.384 206.961C231.858 206.237 229.263 165.715 260.515 161.679Z"/>
	<path fill="white" transform="scale(1.6 1.6)" d="M102.269 247.203C108.847 247.699 115.495 247.519 122.087 247.518L538.119 247.512C537.331 256.468 537.778 265.727 537.782 274.726L537.803 471.326C537.805 484.47 537.834 491.618 528.104 501.348C515.46 512.665 493.585 509.452 477.712 509.45L144.218 509.467C126.414 509.547 106.705 508.566 102.965 485.257C101.74 477.628 102.474 469.157 102.482 461.418L102.483 309.874C102.484 289.004 102.839 268.064 102.269 247.203Z"/>
	<path fill="#373B4E" transform="scale(1.6 1.6)" d="M317.699 284.514C368.603 281.763 415.841 325.616 416.556 376.9C417.301 430.256 375.841 474.035 322.422 474.721C238.079 475.67 190.838 378.168 248.695 315.712C266.885 296.077 291.082 285.573 317.699 284.514Z"/>
	<path fill="white" transform="scale(1.6 1.6)" d="M314.094 295.754C356.525 290.276 400.749 326.995 405.153 369.427C410.364 419.623 375.202 458.285 326.013 463.279C322.635 463.885 319.015 463.659 315.602 463.506C274.127 461.657 238.181 429.037 234.834 387.117C231.07 339.984 267.273 299.369 314.094 295.754Z"/>
	<path fill="#00ACFE" transform="scale(1.6 1.6)" d="M316.291 314.162C355.744 311.973 364.307 368.395 320.996 371.942C338.222 373.437 348.01 373.701 361.642 387.802C369.975 396.421 378.107 411.939 377.742 424.205C377.389 436.082 363.157 432.774 354.982 432.768C344.963 432.761 334.938 432.826 324.922 432.618C312.699 432.955 300.426 432.727 288.197 432.747C279.552 432.762 262.587 436.756 261.932 425.5C261.255 413.86 269.163 398.289 276.726 389.819C287.229 378.055 299.782 372.761 315.072 371.888L314.986 371.578L315.544 371.719C283.17 369.623 279.211 321.043 316.291 314.162Z"/>
</svg>
