<?xml version="1.0" encoding="utf-8" ?>
<svg xmlns="http://www.w3.org/2000/svg" xmlns:xlink="http://www.w3.org/1999/xlink" width="1024" height="1024">
	<path fill="#F45460" transform="scale(1.6 1.6)" d="M470.426 227.672C435.635 197.682 473.575 163.599 497.231 184.4C507.225 193.188 508.478 211.326 499.491 221.242C496.399 224.653 492.435 227.019 488.588 229.469C490.935 231.481 493.265 233.517 495.672 235.458C505.283 228.553 513.795 220.102 521.596 211.232C528.605 203.262 542.538 182.031 554.366 199.643C561.204 209.824 549.851 218.563 543.925 225.629L522.498 250.833C516.815 257.474 510.999 264.035 505.95 271.181C506.557 287.363 504.535 305.23 507.043 321.114C508.214 328.529 510.349 335.855 511.882 343.208C514.954 357.943 522.481 389.612 522.856 404.054C515.263 403.962 502.876 404.991 495.962 404.232C483.775 403.591 471.403 404.011 459.197 404.019C456.21 404.463 434.818 404.513 431.988 404.06C433.663 391.413 441.627 365.575 445.185 352.721C449.894 335.707 453.814 326.714 453.795 308.982L453.761 285.203C453.755 280.777 453.435 276.046 454.051 271.661C444.884 258.149 434.326 245.437 424.04 232.766C417.671 224.92 397.637 206.2 412.919 196.642C426.367 188.232 437.277 209.218 444.056 217.51C448.861 223.387 455.556 230.267 459.616 236.436C463.133 233.396 466.682 230.432 470.426 227.672ZM459.197 404.019C471.403 404.011 483.775 403.591 495.962 404.232C494.197 397.028 493.624 389.376 492.188 382.063C488.228 361.895 484.083 341.746 480.486 321.51C473.202 348.09 465.799 377.139 459.197 404.019Z"/>
	<path fill="#629DDE" transform="scale(1.6 1.6)" d="M153.538 235.79C119.51 213.162 150.789 171.359 178.17 189.587C196.055 201.492 191.021 227.827 171.962 236.106C175.074 237.954 177.736 240.309 179.914 243.215C187.099 234.896 194.404 226.721 201.428 218.261L211.513 206.084C217.374 198.992 225.541 190.231 235.39 199.18C247.212 209.92 234.183 221.029 227.336 229.562L204.497 258.354C200.424 263.512 195.778 268.747 192.25 274.272C192.533 284.769 192.395 295.282 192.396 305.782C192.4 340.635 207.547 370.384 209.798 403.825C214.025 403.998 218.4 403.658 222.583 403.991C205.516 404.436 188.214 404.277 171.14 403.996C165.366 404.057 159.589 404.008 153.815 403.993C149.15 404.345 144.253 404.042 139.562 404.041L113.741 404.002C115.229 403.898 116.71 403.782 118.202 403.78C121.008 383.844 127.378 358.862 131.95 338.984C133.206 333.521 135.379 328.015 136.28 322.527C136.863 318.975 136.881 279.53 136.163 275.89C133.572 262.747 82.5797 220.977 83.9714 208.254C84.7715 200.939 92.2699 195.009 99.5542 195.879C107.437 196.82 115.494 208.941 120.27 214.481C128.674 224.229 137.039 234.058 146.661 242.636C148.443 239.775 150.756 237.674 153.538 235.79ZM164.734 327.134C157.67 352.529 152.69 378.416 145.502 403.8C148.278 403.812 151.042 403.869 153.815 403.993C159.589 404.008 165.366 404.057 171.14 403.996C174.804 403.54 178.915 403.975 182.657 403.812C180.2 391.024 176.439 378.595 173.597 365.902L168.395 342.023C167.304 337.05 166.364 331.963 164.734 327.134Z"/>
	<path fill="#629DDE" transform="scale(1.6 1.6)" d="M335.555 160.129C337.787 156.719 341.081 154.075 343.801 151.055C355.811 137.722 366.326 122.797 377.242 108.579C382.194 102.129 387.047 92.3696 395.776 90.7155C403.125 89.323 410.118 94.9185 411.091 102.177C412.049 109.325 406.874 114.549 402.932 119.816C385.601 142.979 366.888 165.197 349.912 188.603C350.172 201.84 349.27 215.16 349.273 228.422C349.281 258.475 361.652 286.618 365.443 316.165C355.822 316.368 346.148 316.399 336.528 316.182C332.514 316.553 328.436 316.319 324.408 316.307L303.607 316.206C296.029 317.067 282.923 316.37 275.194 316.059C276.05 309.704 277.862 303.216 279.298 296.961L288.125 259.644C289.663 253.222 291.47 246.628 292.315 240.082C292.8 236.327 293.539 195.84 292.411 192.458C291.466 189.622 281.392 176.504 279.084 173.478L245.16 129.475C240.951 124.041 233.462 115.823 230.464 110.242C223.21 96.7402 241.599 84.0562 252.331 94.7065C257.075 99.4148 263.241 108.79 267.645 114.456C280.11 130.491 291.979 145.936 304.841 161.653C306.913 159.572 308.983 157.509 311.169 155.544C287.649 143.5 289.876 111.47 312.822 104.672C343.928 95.4573 361.831 140.933 329.273 155.301C331.967 156.484 333.578 158.045 335.555 160.129ZM303.607 316.206L324.408 316.307C328.436 316.319 332.514 316.553 336.528 316.182C333.123 310.77 325.407 261.54 321.571 247.263C313.503 260.658 309.837 297.48 303.607 316.206Z"/>
	<path fill="#364359" transform="scale(1.6 1.6)" d="M394.032 403.746C406.598 404.57 419.386 403.941 431.988 404.06C434.818 404.513 456.21 404.463 459.197 404.019C471.403 404.011 483.775 403.591 495.962 404.232C502.876 404.991 515.263 403.962 522.856 404.054L554.67 404.024C554.418 443.809 555.275 483.661 554.363 523.431C542.133 523.063 529.852 523.277 517.617 523.276L412.986 523.273C406.703 523.261 400.383 522.757 394.111 523.199C393.586 509.678 394.035 495.976 394.038 482.44L394.032 403.746Z"/>
	<path fill="#364359" transform="scale(1.6 1.6)" d="M85.9348 403.78C95.1325 404.383 104.518 404.025 113.741 404.002L139.562 404.041C144.253 404.042 149.15 404.345 153.815 403.993C159.589 404.008 165.366 404.057 171.14 403.996C188.214 404.277 205.516 404.436 222.583 403.991C230.491 404.019 238.603 403.625 246.484 404.044L246.557 522.994C241.98 522.588 236.866 523.265 232.216 523.277L195.22 523.291C158.822 523.284 122.33 522.719 85.9427 523.42C86.2655 519.241 86.0047 515.12 85.9939 510.939L85.9348 403.78Z"/>
	<path fill="#FAC937" transform="scale(1.6 1.6)" d="M275.194 316.059C282.923 316.37 296.029 317.067 303.607 316.206L324.408 316.307C328.436 316.319 332.514 316.553 336.528 316.182C346.148 316.399 355.822 316.368 365.443 316.165C374.857 316.373 384.405 316.598 393.816 316.454C394.382 327.001 394.051 337.685 394.048 348.249L394.032 403.746L394.038 482.44C394.035 495.976 393.586 509.678 394.111 523.199C390.886 523.96 372.649 523.275 368.124 523.276L286.981 523.279C281.931 523.279 248.206 523.854 246.557 522.994L246.484 404.044C246.82 393.913 246.545 383.685 246.545 373.545L246.558 316.251C256.03 316.281 265.756 316.734 275.194 316.059Z"/>
</svg>
